<?xml version="1.0" ?><svg enable-background="new 0 0 64 64" height="64px" version="1.1" viewBox="0 0 64 64" width="64px" xml:space="preserve" xmlns="http://www.w3.org/2000/svg" xmlns:xlink="http://www.w3.org/1999/xlink"><g id="Layer_1"><g><circle cx="32" cy="32" fill="#77B3D4" r="32"/></g><g opacity="0.2"><path d="M48,14H16c-2.209,0-4,1.791-4,4v5.5V50c0,2.209,1.791,4,4,4h32c2.209,0,4-1.791,4-4V23.5V18    C52,15.791,50.209,14,48,14z" fill="#231F20"/></g><g><path d="M48,12H16c-2.209,0-4,1.791-4,4v5.5V48c0,2.209,1.791,4,4,4h32c2.209,0,4-1.791,4-4V21.5V16    C52,13.791,50.209,12,48,12z" fill="#E0995E"/></g><g opacity="0.2"><rect fill="#231F20" height="32" width="32" x="16" y="18"/></g><g><rect fill="#FFFFFF" height="32" width="32" x="16" y="16"/></g><g><rect fill="#E0E0D1" height="2" width="20" x="22" y="24"/></g><g><rect fill="#E0E0D1" height="2" width="20" x="22" y="28"/></g><g><rect fill="#E0E0D1" height="2" width="20" x="22" y="32"/></g><g><rect fill="#E0E0D1" height="2" width="20" x="22" y="36"/></g><g><rect fill="#E0E0D1" height="2" width="20" x="22" y="40"/></g><g opacity="0.2"><path d="M37,12H27h-3v3v1v1c0,1.657,1.343,3,3,3h10c1.657,0,3-1.343,3-3v-1v-1v-3H37z" fill="#231F20"/></g><g><path d="M37,10H27h-3v3v1v1c0,1.657,1.343,3,3,3h10c1.657,0,3-1.343,3-3v-1v-1v-3H37z" fill="#4F5D73"/></g></g><g id="Layer_2"/></svg>