<?xml version="1.0" ?><svg enable-background="new 0 0 64 64" height="64px" version="1.1" viewBox="0 0 64 64" width="64px" xml:space="preserve" xmlns="http://www.w3.org/2000/svg" xmlns:xlink="http://www.w3.org/1999/xlink"><g id="Layer_1"><g><circle cx="32" cy="32" fill="#E0995E" r="32"/></g><g opacity="0.2"><g><path d="M32,22.923h-0.417H14.5c-1.38,0-2.5,1.063-2.5,2.422v22.193C12,48.897,13.12,50,14.5,50h35     c1.38,0,2.5-1.103,2.5-2.462V27.846v-2.501v-2.422H32z" fill="#231F20"/></g></g><g><g><path d="M32,20.923h-0.417H14.5c-1.38,0-2.5,1.063-2.5,2.422v22.193C12,46.897,13.12,48,14.5,48h35     c1.38,0,2.5-1.103,2.5-2.462V25.846v-2.501v-2.422H32z" fill="#FFFFFF"/></g></g><g><path d="M52,18.462C52,17.103,50.88,16,49.5,16H37c-1.38,0-2.5,1.103-2.5,2.462c0,0-0.325,2.257-2.5,2.461h20    V18.462z" fill="#E0E0D1"/></g></g><g id="Layer_2"/></svg>