<?xml version="1.0" ?><svg height="32px" version="1.1" viewBox="0 0 32 32" width="32px" xmlns="http://www.w3.org/2000/svg" xmlns:sketch="http://www.bohemiancoding.com/sketch/ns" xmlns:xlink="http://www.w3.org/1999/xlink"><title/><desc/><defs/><g fill="none" fill-rule="evenodd" id="Page-1" stroke="none" stroke-width="1"><g fill="#929292" id="icon-94-folder"><path d="M17,9 L15,5 L4.00276013,5 C2.89666625,5 2,5.88967395 2,6.991155 L2,25.008845 C2,26.1085295 2.89971268,27 3.99328744,27 L29.0067126,27 C30.1075748,27 31,26.1073772 31,25.0049107 L31,10.9950893 C31,9.8932319 30.1029399,9 28.9941413,9 L17,9 L17,9 Z M16.3599854,10 L14.4000244,6 L3.99173483,6 C3.44401481,6 3,6.45530558 3,6.99180311 L3,25.0081969 C3,25.5559546 3.44610862,26 3.99296544,26 L29.0070346,26 C29.5554342,26 30,25.5553691 30,24.9991283 L30,11.0008717 C30,10.4481055 29.5461723,10 28.9970172,10 L16.3599854,10 L16.3599854,10 Z" id="folder"/></g></g></svg>